<svg width="145" height="20" viewBox="0 0 145 20" fill="none" xmlns="http://www.w3.org/2000/svg">
<path d="M3.64648 20H0.0917969V0.394531H3.64648V20ZM20.2578 8.77539H12.2598C11.7767 8.77539 11.4121 8.89844 11.166 9.14453C10.9199 9.38151 10.7969 9.73242 10.7969 10.1973V20H7.24219V10.1973C7.24219 9.58659 7.31966 9.03971 7.47461 8.55664C7.62956 8.07357 7.83464 7.64974 8.08984 7.28516C8.35417 6.91146 8.65495 6.59701 8.99219 6.3418C9.32943 6.07747 9.68034 5.86328 10.0449 5.69922C10.4186 5.53516 10.7923 5.41667 11.166 5.34375C11.5488 5.26172 11.9043 5.2207 12.2324 5.2207H20.2578V8.77539ZM38.6328 15.0098C38.6328 15.6204 38.5553 16.1719 38.4004 16.6641C38.2454 17.1471 38.0404 17.5755 37.7852 17.9492C37.5299 18.3138 37.2337 18.6283 36.8965 18.8926C36.5592 19.1478 36.2038 19.3574 35.8301 19.5215C35.4655 19.6855 35.0918 19.8086 34.709 19.8906C34.3353 19.9635 33.9798 20 33.6426 20H27.2305C26.7383 20 26.2005 19.9134 25.6172 19.7402C25.0339 19.5671 24.4915 19.2845 23.9902 18.8926C23.498 18.4915 23.0833 17.9766 22.7461 17.3477C22.418 16.7096 22.2539 15.9303 22.2539 15.0098V10.1973C22.2539 9.28581 22.418 8.51562 22.7461 7.88672C23.0833 7.2487 23.498 6.73372 23.9902 6.3418C24.4915 5.94076 25.0339 5.65365 25.6172 5.48047C26.2005 5.30729 26.7383 5.2207 27.2305 5.2207H33.6426C34.554 5.2207 35.3288 5.38477 35.9668 5.71289C36.6048 6.04102 37.1198 6.45573 37.5117 6.95703C37.9036 7.44922 38.1862 7.98698 38.3594 8.57031C38.5417 9.15365 38.6328 9.69596 38.6328 10.1973V15.0098ZM35.0781 10.2246C35.0781 9.73242 34.9551 9.36784 34.709 9.13086C34.4629 8.89388 34.1074 8.77539 33.6426 8.77539H27.2578C26.7839 8.77539 26.4238 8.89844 26.1777 9.14453C25.9316 9.38151 25.8086 9.73242 25.8086 10.1973V15.0098C25.8086 15.4746 25.9316 15.8301 26.1777 16.0762C26.4238 16.3223 26.7839 16.4453 27.2578 16.4453H33.6426C34.1257 16.4453 34.4857 16.3223 34.7227 16.0762C34.9596 15.8301 35.0781 15.4746 35.0781 15.0098V10.2246ZM58.0469 20H54.4922V11.7969C54.4922 11.332 54.4102 10.9173 54.2461 10.5527C54.0911 10.179 53.877 9.86003 53.6035 9.5957C53.3301 9.33138 53.0065 9.13086 52.6328 8.99414C52.2682 8.84831 51.8717 8.77539 51.4434 8.77539H45.2227V20H41.668V6.98438C41.668 6.73828 41.7135 6.51042 41.8047 6.30078C41.8958 6.08203 42.0234 5.89518 42.1875 5.74023C42.3516 5.57617 42.543 5.44857 42.7617 5.35742C42.9805 5.26628 43.2129 5.2207 43.459 5.2207H51.4707C51.9173 5.2207 52.3867 5.27083 52.8789 5.37109C53.3802 5.47135 53.8724 5.63542 54.3555 5.86328C54.8477 6.08203 55.3125 6.36458 55.75 6.71094C56.1966 7.04818 56.5885 7.46289 56.9258 7.95508C57.2721 8.43815 57.5456 8.9987 57.7461 9.63672C57.9466 10.2747 58.0469 10.9948 58.0469 11.7969V20ZM87.4414 1.46094C87.5781 1.77995 87.6191 2.11719 87.5645 2.47266C87.5098 2.81901 87.3639 3.11523 87.127 3.36133L75.3965 16.4453H87.4141V20H71.3906C71.0443 20 70.7207 19.9043 70.4199 19.7129C70.1283 19.5124 69.9095 19.2526 69.7637 18.9336C69.6087 18.6146 69.5586 18.2819 69.6133 17.9355C69.6771 17.5892 69.8229 17.2884 70.0508 17.0332L81.8086 3.94922H69.7637V0.394531H85.8145C86.1608 0.394531 86.4798 0.494792 86.7715 0.695312C87.0723 0.886719 87.2956 1.14193 87.4414 1.46094ZM106.199 15.0098C106.199 15.6204 106.122 16.1719 105.967 16.6641C105.812 17.1471 105.607 17.5755 105.352 17.9492C105.096 18.3138 104.8 18.6283 104.463 18.8926C104.126 19.1478 103.77 19.3574 103.396 19.5215C103.032 19.6855 102.658 19.8086 102.275 19.8906C101.902 19.9635 101.546 20 101.209 20H94.7969C94.3047 20 93.7669 19.9134 93.1836 19.7402C92.6003 19.5671 92.0579 19.2845 91.5566 18.8926C91.0645 18.4915 90.6497 17.9766 90.3125 17.3477C89.9844 16.7096 89.8203 15.9303 89.8203 15.0098V10.1973C89.8203 9.28581 89.9844 8.51562 90.3125 7.88672C90.6497 7.2487 91.0645 6.73372 91.5566 6.3418C92.0579 5.94076 92.6003 5.65365 93.1836 5.48047C93.7669 5.30729 94.3047 5.2207 94.7969 5.2207H101.209C102.12 5.2207 102.895 5.38477 103.533 5.71289C104.171 6.04102 104.686 6.45573 105.078 6.95703C105.47 7.44922 105.753 7.98698 105.926 8.57031C106.108 9.15365 106.199 9.69596 106.199 10.1973V15.0098ZM102.645 10.2246C102.645 9.73242 102.521 9.36784 102.275 9.13086C102.029 8.89388 101.674 8.77539 101.209 8.77539H94.8242C94.3503 8.77539 93.9902 8.89844 93.7441 9.14453C93.498 9.38151 93.375 9.73242 93.375 10.1973V15.0098C93.375 15.4746 93.498 15.8301 93.7441 16.0762C93.9902 16.3223 94.3503 16.4453 94.8242 16.4453H101.209C101.692 16.4453 102.052 16.3223 102.289 16.0762C102.526 15.8301 102.645 15.4746 102.645 15.0098V10.2246ZM125.613 20H122.059V11.7969C122.059 11.332 121.977 10.9173 121.812 10.5527C121.658 10.179 121.443 9.86003 121.17 9.5957C120.896 9.33138 120.573 9.13086 120.199 8.99414C119.835 8.84831 119.438 8.77539 119.01 8.77539H112.789V20H109.234V6.98438C109.234 6.73828 109.28 6.51042 109.371 6.30078C109.462 6.08203 109.59 5.89518 109.754 5.74023C109.918 5.57617 110.109 5.44857 110.328 5.35742C110.547 5.26628 110.779 5.2207 111.025 5.2207H119.037C119.484 5.2207 119.953 5.27083 120.445 5.37109C120.947 5.47135 121.439 5.63542 121.922 5.86328C122.414 6.08203 122.879 6.36458 123.316 6.71094C123.763 7.04818 124.155 7.46289 124.492 7.95508C124.839 8.43815 125.112 8.9987 125.312 9.63672C125.513 10.2747 125.613 10.9948 125.613 11.7969V20ZM144.631 10.1152C144.631 10.6074 144.544 11.1406 144.371 11.7148C144.198 12.2799 143.915 12.8086 143.523 13.3008C143.141 13.7839 142.635 14.1895 142.006 14.5176C141.386 14.8457 140.63 15.0098 139.736 15.0098H133.324V11.6328H139.736C140.219 11.6328 140.593 11.487 140.857 11.1953C141.122 10.8945 141.254 10.5254 141.254 10.0879C141.254 9.62305 141.104 9.25846 140.803 8.99414C140.511 8.72982 140.156 8.59766 139.736 8.59766H133.324C132.841 8.59766 132.467 8.74805 132.203 9.04883C131.939 9.34049 131.807 9.70508 131.807 10.1426V15.1055C131.807 15.5794 131.952 15.9486 132.244 16.2129C132.545 16.4772 132.914 16.6094 133.352 16.6094H139.736V20H133.324C132.832 20 132.299 19.9134 131.725 19.7402C131.16 19.5671 130.631 19.2891 130.139 18.9062C129.656 18.5143 129.25 18.0085 128.922 17.3887C128.594 16.7598 128.43 15.9987 128.43 15.1055V10.1152C128.43 9.62305 128.516 9.0944 128.689 8.5293C128.863 7.95508 129.141 7.42643 129.523 6.94336C129.915 6.45117 130.421 6.04102 131.041 5.71289C131.67 5.38477 132.431 5.2207 133.324 5.2207H139.736C140.229 5.2207 140.757 5.30729 141.322 5.48047C141.896 5.65365 142.425 5.9362 142.908 6.32812C143.4 6.71094 143.811 7.2168 144.139 7.8457C144.467 8.46549 144.631 9.22201 144.631 10.1152Z" fill="#D2FF28"/>
</svg>
